<?xml version="1.0" encoding="utf-8"?>
<svg xmlns="http://www.w3.org/2000/svg" style="margin: auto; background: rgba(241, 242, 243,0); display: block; shape-rendering: auto;" width="280" height="250" preserveAspectRatio="xMidYMid">
<style type="text/css">
  text {
    text-anchor: middle; font-size: 94px; opacity: 0;
  }
</style>
<g style="transform-origin:140px 125px;transform:scale(1)">
<g transform="translate(140,125)">
  <g transform="translate(0,0)"><g class="path" style="opacity: 1; transform-origin: -78.375px -7.32187px; animation: 1s linear -0.55s infinite normal forwards running fade-f0534650-ded4-4b2f-ba11-82a3774fbd86;"><path d="M43.60-15.24L43.60-15.24L43.60-15.24Q43.60-11.89 42.34-8.95L42.34-8.95L42.34-8.95Q41.08-6.01 38.88-3.81L38.88-3.81L38.88-3.81Q36.67-1.61 33.74-0.34L33.74-0.34L33.74-0.34Q30.80 0.92 27.45 0.92L27.45 0.92L22.77 0.92L22.77 0.92Q19.42 0.92 16.45-0.34L16.45-0.34L16.45-0.34Q13.49-1.61 11.29-3.81L11.29-3.81L11.29-3.81Q9.09-6.01 7.83-8.95L7.83-8.95L7.83-8.95Q6.56-11.89 6.56-15.24L6.56-15.24L6.56-65.82L12.48-65.82L12.48-15.24L12.48-15.24Q12.48-13.04 13.31-11.13L13.31-11.13L13.31-11.13Q14.14-9.23 15.58-7.78L15.58-7.78L15.58-7.78Q17.03-6.33 18.93-5.51L18.93-5.51L18.93-5.51Q20.84-4.68 23.04-4.68L23.04-4.68L27.17-4.68L27.17-4.68Q29.38-4.68 31.28-5.51L31.28-5.51L31.28-5.51Q33.18-6.33 34.61-7.78L34.61-7.78L34.61-7.78Q36.03-9.23 36.86-11.13L36.86-11.13L36.86-11.13Q37.68-13.04 37.68-15.24L37.68-15.24L37.68-65.82L43.60-65.82L43.60-15.24" fill="#0074bb" stroke="none" stroke-width="none" transform="translate(-103.45498657226562,25.128135884602862)" style="fill: rgb(0, 116, 187);"></path></g><g class="path" style="opacity: 1; transform-origin: -19.965px 1.16814px; animation: 1s linear -0.44s infinite normal forwards running fade-f0534650-ded4-4b2f-ba11-82a3774fbd86;"><path d="M111.12 0L105.47 0L105.47-34.42L105.47-34.42Q105.47-36.12 104.83-37.61L104.83-37.61L104.83-37.61Q104.19-39.11 103.09-40.21L103.09-40.21L103.09-40.21Q101.99-41.31 100.49-41.95L100.49-41.95L100.49-41.95Q99.00-42.59 97.30-42.59L97.30-42.59L94.50-42.59L94.50-42.59Q92.81-42.59 91.31-41.95L91.31-41.95L91.31-41.95Q89.82-41.31 88.70-40.21L88.70-40.21L88.70-40.21Q87.57-39.11 86.93-37.61L86.93-37.61L86.93-37.61Q86.29-36.12 86.29-34.42L86.29-34.42L86.29 0L80.69 0L80.69-34.42L80.69-34.42Q80.69-36.12 80.05-37.61L80.05-37.61L80.05-37.61Q79.40-39.11 78.28-40.21L78.28-40.21L78.28-40.21Q77.16-41.31 75.66-41.95L75.66-41.95L75.66-41.95Q74.17-42.59 72.47-42.59L72.47-42.59L69.67-42.59L69.67-42.59Q67.98-42.59 66.48-41.95L66.48-41.95L66.48-41.95Q64.99-41.31 63.89-40.21L63.89-40.21L63.89-40.21Q62.79-39.11 62.15-37.61L62.15-37.61L62.15-37.61Q61.50-36.12 61.50-34.42L61.50-34.42L61.50 0L55.86 0L55.86-47L57.74-47L60.82-42.23L60.82-42.23Q62.74-44.84 65.66-46.38L65.66-46.38L65.66-46.38Q68.57-47.92 72.01-47.92L72.01-47.92L72.47-47.92L72.47-47.92Q76.47-47.92 79.68-45.94L79.68-45.94L79.68-45.94Q82.89-43.97 84.64-40.71L84.64-40.71L84.64-40.71Q85.51-42.32 86.79-43.65L86.79-43.65L86.79-43.65Q88.08-44.98 89.64-45.92L89.64-45.92L89.64-45.92Q91.20-46.86 93.04-47.39L93.04-47.39L93.04-47.39Q94.87-47.92 96.85-47.92L96.85-47.92L97.30-47.92L97.30-47.92Q100.15-47.92 102.67-46.84L102.67-46.84L102.67-46.84Q105.20-45.76 107.08-43.88L107.08-43.88L107.08-43.88Q108.96-42.00 110.04-39.47L110.04-39.47L110.04-39.47Q111.12-36.95 111.12-34.10L111.12-34.10L111.12 0" fill="#0074bb" stroke="none" stroke-width="none" transform="translate(-103.45498657226562,25.128135884602862)" style="fill: rgb(64, 168, 83);"></path></g><g class="path" style="opacity: 1; transform-origin: 34.655px 1.62814px; animation: 1s linear -0.33s infinite normal forwards running fade-f0534650-ded4-4b2f-ba11-82a3774fbd86;"><path d="M153.81 0L151.92 0L148.80-4.68L148.80-4.68Q146.88-2.16 143.98-0.62L143.98-0.62L143.98-0.62Q141.09 0.92 137.65 0.92L137.65 0.92L136.23 0.92L136.23 0.92Q133.38 0.92 130.86-0.16L130.86-0.16L130.86-0.16Q128.33-1.24 126.45-3.12L126.45-3.12L126.45-3.12Q124.57-5.00 123.49-7.53L123.49-7.53L123.49-7.53Q122.41-10.05 122.41-12.90L122.41-12.90L122.41-13.36L122.41-13.36Q122.41-16.20 123.49-18.73L123.49-18.73L123.49-18.73Q124.57-21.25 126.45-23.13L126.45-23.13L126.45-23.13Q128.33-25.01 130.86-26.09L130.86-26.09L130.86-26.09Q133.38-27.17 136.23-27.17L136.23-27.17L148.16-27.17L148.16-34.42L148.16-34.42Q148.16-36.12 147.52-37.61L147.52-37.61L147.52-37.61Q146.88-39.11 145.77-40.21L145.77-40.21L145.77-40.21Q144.67-41.31 143.18-41.95L143.18-41.95L143.18-41.95Q141.69-42.59 139.99-42.59L139.99-42.59L136.69-42.59L136.69-42.59Q134.99-42.59 133.50-41.95L133.50-41.95L133.50-41.95Q132.00-41.31 130.90-40.21L130.90-40.21L130.90-40.21Q129.80-39.11 129.16-37.61L129.16-37.61L129.16-37.61Q128.52-36.12 128.52-34.42L128.52-34.42L128.52-32.73L122.87-33.64L122.87-34.10L122.87-34.10Q122.87-36.95 123.95-39.47L123.95-39.47L123.95-39.47Q125.03-42.00 126.91-43.88L126.91-43.88L126.91-43.88Q128.79-45.76 131.32-46.84L131.32-46.84L131.32-46.84Q133.84-47.92 136.69-47.92L136.69-47.92L139.99-47.92L139.99-47.92Q142.84-47.92 145.36-46.84L145.36-46.84L145.36-46.84Q147.88-45.76 149.77-43.88L149.77-43.88L149.77-43.88Q151.65-42.00 152.73-39.47L152.73-39.47L152.73-39.47Q153.81-36.95 153.81-34.10L153.81-34.10L153.81 0zM148.16-12.58L148.16-22.77L136.23-22.77L136.23-22.77Q134.53-22.77 133.04-22.12L133.04-22.12L133.04-22.12Q131.54-21.48 130.44-20.36L130.44-20.36L130.44-20.36Q129.34-19.23 128.70-17.74L128.70-17.74L128.70-17.74Q128.06-16.25 128.06-14.55L128.06-14.55L128.06-12.58L128.06-12.58Q128.06-10.88 128.70-9.39L128.70-9.39L128.70-9.39Q129.34-7.89 130.44-6.79L130.44-6.79L130.44-6.79Q131.54-5.69 133.04-5.05L133.04-5.05L133.04-5.05Q134.53-4.41 136.23-4.41L136.23-4.41L139.99-4.41L139.99-4.41Q141.69-4.41 143.18-5.05L143.18-5.05L143.18-5.05Q144.67-5.69 145.77-6.79L145.77-6.79L145.77-6.79Q146.88-7.89 147.52-9.39L147.52-9.39L147.52-9.39Q148.16-10.88 148.16-12.58L148.16-12.58" fill="#0074bb" stroke="none" stroke-width="none" transform="translate(-103.45498657226562,25.128135884602862)" style="fill: rgb(233, 68, 54);"></path></g><g class="path" style="opacity: 1; transform-origin: 66.09px 21.5931px; animation: 1s linear -0.22s infinite normal forwards running fade-f0534650-ded4-4b2f-ba11-82a3774fbd86;"><path d="M173.08 0L166.01 0L166.01-7.07L173.08-7.07L173.08 0" fill="#0074bb" stroke="none" stroke-width="none" transform="translate(-103.45498657226562,25.128135884602862)" style="fill: rgb(248, 188, 55);"></path></g><g class="path" style="opacity: 1; transform-origin: 86.29px 21.5931px; animation: 1s linear -0.11s infinite normal forwards running fade-f0534650-ded4-4b2f-ba11-82a3774fbd86;"><path d="M193.28 0L186.21 0L186.21-7.07L193.28-7.07L193.28 0" fill="#0074bb" stroke="none" stroke-width="none" transform="translate(-103.45498657226562,25.128135884602862)" style="fill: rgb(233, 68, 54);"></path></g><g class="path" style="opacity: 1; transform-origin: 106.485px 21.5931px; animation: 1s linear 0s infinite normal forwards running fade-f0534650-ded4-4b2f-ba11-82a3774fbd86;"><path d="M213.47 0L206.41 0L206.41-7.07L213.47-7.07L213.47 0" fill="#0074bb" stroke="none" stroke-width="none" transform="translate(-103.45498657226562,25.128135884602862)" style="fill: rgb(0, 116, 187);"></path></g></g>
</g>
</g>
<style id="fade-f0534650-ded4-4b2f-ba11-82a3774fbd86" data-anikit="">@keyframes fade-f0534650-ded4-4b2f-ba11-82a3774fbd86
{
  0% {
    animation-timing-function: cubic-bezier(0.2057,0.573,0.3723,0.9184);
    opacity: 1;
  }
  100% {
    opacity: 0;
  }
}</style></svg>